<svg xmlns="http://www.w3.org/2000/svg" viewBox="0 0 51 55" enable-background="new 0 0 51 55"><path fill="#C7C6C3" d="M15.8 29.6c0-13.1 5-18.7 14.8-18.7 1.6 0 3.1.2 4.4.7-.1-.1-.2-.2-.2-.3-2.7-2.7-5.5-3.9-9.2-3.9-9.2 0-13.3 5.3-13.3 17.2v.7c0 7.4 1.5 12.1 4.8 14.8-.9-2.6-1.4-5.9-1.4-9.8l.1-.7z"/><g fill="#B2B2AF"><path d="M13.4 15.9l3.8 3.8.4-1-3.8-3.8c-.2.3-.3.6-.4 1z"/><path d="M13 17.3c-.1.4-.2.8-.2 1.2l3.7 3.7c.1-.4.2-.8.3-1.1l-3.8-3.8z"/><path d="M15.2 12l3.9 3.9.6-.8-3.9-3.9-.6.8z"/><path d="M20.2 14.6c2.5-2.5 5.9-3.7 10.3-3.7 1.6 0 3.1.2 4.4.7-.1-.1-.2-.2-.2-.3-2.7-2.7-5.5-3.9-9.2-3.9-4.1 0-7.1 1-9.3 3.2l4 4z"/><path d="M14.2 13.7l3.9 3.8.5-.9-3.9-3.9c-.2.4-.3.7-.5 1z"/></g><path fill="#B2B2AF" d="M39.9 17.1l3.5 3.4h1l-3.5-3.4z"/><path fill="#C7C6C3" d="M40.9 15.6v1.5l3.5 3.4v-12.9l-3.5-3.5z"/><path fill="#C32127" d="M27.4 27.1c3.1.6 4.3 1.8 4.3 4.1v11.7c-2 .8-3.9 1.2-5.8 1.2-9.8 0-15.1-5.3-15.1-18.7v-.7c0-13.1 5-18.7 14.8-18.7 4.1 0 7.3 1.4 10.2 4.3 1.2 1.2 2.2 3.4 2.6 5.3h1v-12.9c-4.7-2-9.5-2.7-13.8-2.7-15.6 0-25.6 8.1-25.6 24.7v.7c0 16.6 10 24.7 24.6 24.7 6.6 0 13.2-1.7 17.2-4.2v-14.7c0-2.3 1.1-3.4 4.3-4.1v-1h-18.7v1z"/><path fill="#C7C6C3" d="M47.5 27.6v1l3.5 3.4v-.9z"/><path fill="#BDBCBF" d="M47.5 28.6c-3.1 0-4.3.8-4.3 2.6v15.5l3.5 3.5v-14c0-2.3 1.1-3.4 4.3-4.1l-3.5-3.5z"/><g fill="#B2B2AF"><path d="M43.7 29.7l3.9 3.9c.7-.7 1.7-1.2 3.3-1.5l-3.5-3.5c-1.9 0-3.1.3-3.7 1.1z"/><path d="M46.8 35.1c.1-.4.2-.7.4-1l-3.8-3.8c-.1.3-.1.5-.1.9v.4l3.5 3.5z"/></g><path fill="#B2B2AF" d="M42.6 47.2c-4.4 2.7-11.2 4.4-17.9 4.4-4.7 0-8.9-.8-12.4-2.4 4.2 3.8 10.2 5.8 17.3 5.8 6.6 0 13.2-2.3 17.2-4.8l-3.5-3.5-.7.5z"/></svg>