<svg xmlns="http://www.w3.org/2000/svg" viewBox="0 0 45 55" enable-background="new 0 0 45 55"><path fill="#F04D23" d="M22.5 55c-23.5-9-22.5-19.5-22.5-19.5v-30.5c6.1-4.6 21.2-5 22.4-5h.2c1.3 0 16.3.4 22.4 5v30.6c0-.1.9 10.4-22.5 19.4z"/><path fill="#fff" d="M30.9 14.1h-14.2c-6.1 0-6.1 6.5-6.1 6.5 0 4.9 3.2 6 4.4 6.4h-4.7v4.7c0 3.4 2.5 4.1 3.9 4.2v.1h1.1v-14.4c0-3.1 4-2.9 4-2.9h10.4v4.2h-9.7v4.6h9.8v.8c0 3.1-4 2.9-4 2.9h-5.8v4.6h8.6c6.1 0 6.1-6.5 6.1-6.5 0-5.4-3.5-6.2-4.3-6.4h4.6v-4.7c-.1-3.3-2.6-4-4.1-4.1z"/></svg>